<?xml version="1.0" encoding="utf-8"?>
<!-- Svg Vector Icons : http://www.onlinewebfonts.com/icon -->
<!DOCTYPE svg PUBLIC "-//W3C//DTD SVG 1.1//EN" "http://www.w3.org/Graphics/SVG/1.1/DTD/svg11.dtd">
<svg version="1.1" xmlns="http://www.w3.org/2000/svg" xmlns:xlink="http://www.w3.org/1999/xlink" x="0px" y="0px" viewBox="0 0 1000 1000" enable-background="new 0 0 1000 1000" xml:space="preserve">
<metadata> Svg Vector Icons : http://www.onlinewebfonts.com/icon </metadata>
<g><g transform="translate(0.000000,511.000000) scale(0.100000,-0.100000)"><path d="M7652.9,3542.8C6526.1,2418.2,6162.2,2065.2,6085.4,2032.3c-89.9-41.6-144.7-46-580.9-46h-482.3L2604.1-429.6C966.4-2067.2,172.8-2876.2,144.3-2937.6c-54.8-109.6-59.2-346.4-11-464.7c46-109.6,1214.5-1282.5,1339.5-1341.7c109.6-54.8,346.4-59.2,464.8-8.8c52.6,21.9,267.5,219.2,611.7,561.3l530.5,528.3l120.6-120.6c241.1-241.2,581-359.5,883.5-309.1c440.6,76.7,813.3,449.4,890.1,890.1c50.4,302.5-68,642.3-309.1,883.5l-120.6,120.6l1164.1,1166.3L6874.6,133.8v482.3c0,436.3,4.4,491.1,46,581c32.9,76.7,385.9,440.6,1510.5,1567.5C9689.5,4025.1,9900,4244.4,9900,4297c0,50.4-54.8,120.6-289.4,361.7c-160,164.4-311.3,309.1-335.4,324.5C9161.2,5053.3,9191.9,5079.6,7652.9,3542.8z M9334.4,4448.3c70.2-70.2,127.1-135.9,127.1-149.1c0-11-622.6-644.5-1381.1-1403.1c-760.7-760.7-1405.2-1420.6-1433.8-1468.8c-103-173.2-122.8-296-122.8-732.2V287.3l-1150.9-1151L4224.2-2012.4l-258.7-2.2c-217,0-278.4-8.8-383.6-50.4c-274-109.6-526.1-361.7-635.8-635.8c-41.7-105.2-50.4-164.4-50.4-383.7v-256.5l-570-570c-355.2-352.9-587.5-570-613.8-570c-59.2,0-1304.4,1247.4-1304.4,1304.4c0,28.5,833.1,876.9,2383,2426.9l2385.2,2385.2h412.1c445,0,576.6,24.1,756.3,142.5c43.8,28.5,697.1,668.6,1451.3,1422.8c754.2,754.2,1379,1372.4,1392.1,1372.4C9198.5,4573.2,9264.2,4516.2,9334.4,4448.3z M3923.8-2422.4c19.7-105.2,15.4-482.3-8.8-613.8c-11-65.8-81.1-239-153.5-388l-133.7-267.5l-63.6,32.9c-105.2,54.8-214.8,184.2-267.5,315.7c-67.9,171-67.9,429.7,0,583.1c87.7,190.7,258.7,335.4,458.2,381.4C3895.3-2345.6,3908.5-2350,3923.8-2422.4z M4443.4-2556.1c287.2-289.4,239-850.6-92.1-1074.2c-89.9-59.2-317.9-142.5-339.8-120.6c-4.4,4.4,35.1,100.9,87.7,214.8c157.9,335.4,171,390.3,184.2,758.6C4294.3-2404.8,4292.1-2407,4443.4-2556.1z"/></g></g>
</svg>