<?xml version="1.0" encoding="iso-8859-1"?>
<!-- Generator: Adobe Illustrator 18.1.1, SVG Export Plug-In . SVG Version: 6.00 Build 0)  -->
<svg version="1.1" id="Capa_1" xmlns="http://www.w3.org/2000/svg" xmlns:xlink="http://www.w3.org/1999/xlink" x="0px" y="0px"
	 viewBox="0 0 44.069 44.069" style="enable-background:new 0 0 44.069 44.069;" xml:space="preserve">
<g>
	<g>
		<g>
			<path style="fill:#010002;" d="M32.17,0L17.811,37.604c0,0-0.873,2.736-2.442,2.244c-1.312-0.643-1.366-1.301-1.771-3.539
				c-0.693-1.233-3.203-1.334-3.777,0.969c0.811,9.744,9.264,6.863,10.257,4.367c0.508-1.478,14.17-41.161,14.17-41.161L32.17,0z"/>
			<path style="fill:#010002;" d="M12.642,30.641c1.562,0,2.826-1.265,2.826-2.824c0-1.563-1.265-2.825-2.826-2.825
				c-1.557-0.001-2.822,1.263-2.822,2.823C9.82,29.376,11.085,30.641,12.642,30.641z"/>
		</g>
	</g>
</g>
<g>
</g>
<g>
</g>
<g>
</g>
<g>
</g>
<g>
</g>
<g>
</g>
<g>
</g>
<g>
</g>
<g>
</g>
<g>
</g>
<g>
</g>
<g>
</g>
<g>
</g>
<g>
</g>
<g>
</g>
</svg>
