<?xml version="1.0" encoding="utf-8"?>
<!-- Svg Vector Icons : http://www.onlinewebfonts.com/icon -->
<!DOCTYPE svg PUBLIC "-//W3C//DTD SVG 1.1//EN" "http://www.w3.org/Graphics/SVG/1.1/DTD/svg11.dtd">
<svg version="1.1" xmlns="http://www.w3.org/2000/svg" xmlns:xlink="http://www.w3.org/1999/xlink" x="0px" y="0px" viewBox="0 0 1000 1000" enable-background="new 0 0 1000 1000" xml:space="preserve">
<metadata> Svg Vector Icons : http://www.onlinewebfonts.com/icon </metadata>
<g><g transform="translate(0.000000,511.000000) scale(0.100000,-0.100000)"><path d="M7231.2,4685.6c-51.1-10.2-157.5-51.1-239.3-90c-429.5-212.7-611.5-740.3-409-1184.1c73.6-157.5,147.3-251.5,288.4-353.8c171.8-126.8,349.7-175.9,591-165.6c157.5,6.1,210.6,18.4,321.1,69.5c327.2,155.4,531.7,472.4,531.7,822.1c0,255.6-79.8,452-259.7,640.1C7844.7,4644.7,7533.9,4744.9,7231.2,4685.6z"/><path d="M4132.9,3728.5c-32.7-8.2-87.9-30.7-122.7-49.1c-59.3-30.7-1539.9-1237.3-1685.1-1372.2c-302.7-282.2-108.4-793.5,302.7-793.5c63.4,0,147.2,14.3,186.1,28.6c38.9,16.4,364,272,721.9,564.4c357.9,294.5,668.7,535.8,689.2,535.8c20.5,0,233.1-40.9,474.5-92c239.3-51.1,441.7-92,452-92c8.2,0,14.3-8.2,14.3-18.4s-345.6-552.2-766.9-1202.5C3681,131.3,3603.3,16.7,3147.2-557.9c-267.9-337.4-507.2-640.1-531.7-672.8l-47-57.3l-981.6,40.9c-666.7,26.6-1010.3,34.8-1071.6,20.4c-278.1-59.3-466.3-357.9-402.9-640.1c40.9-186.1,194.3-349.7,368.1-398.8c71.6-20.4,1760.8-100.2,2241.4-106.3c378.3-4.1,349.7-26.6,922.3,695.3c259.7,329.2,482.6,609.4,494.9,621.7c16.4,16.3,231.1-126.8,789.4-517.4c421.3-296.5,766.9-546,768.9-552.2c0-8.2-186.1-368.1-411.1-803.7c-227-435.6-425.4-834.4-441.7-887.5c-53.2-180,8.2-388.6,157.5-521.5c116.6-108.4,210.6-143.2,368.1-145.2c110.4,0,153.4,10.2,243.3,59.3c61.4,34.8,137,94.1,167.7,132.9c83.9,108.4,1100.3,2073.7,1122.8,2173.9c49.1,210.6-4.1,421.3-137,550.1c-42.9,38.8-402.9,304.7-799.6,589c-695.3,496.9-719.9,517.4-693.3,560.3c511.3,797.6,1169.8,1789.4,1182,1777.2c8.2-8.2,132.9-222.9,276.1-476.5C6873.3,630.3,7014.4,393,7043,354.2c26.6-36.8,98.2-90,155.4-116.6c102.3-47,124.7-47,1188.2-75.7c813.9-20.4,1106.4-22.5,1177.9-4.1c204.5,51.1,333.4,225,335.4,452c0,161.6-77.7,296.5-222.9,386.5l-100.2,61.3l-738.3,16.4c-407,8.2-797.6,22.5-867.1,30.7l-130.9,14.3l-407,726c-519.5,922.3-605.4,1049.1-879.4,1280.2c-220.9,188.1-231.1,192.2-1255.7,404.9C4269.9,3742.8,4222.9,3751,4132.9,3728.5z"/></g></g>
</svg>